<svg width="84" height="84" viewBox="0 0 84 84" fill="none" xmlns="http://www.w3.org/2000/svg">
<path d="M38.5 73.5V68.25H68.25V41.65C68.25 34.435 65.7031 28.3146 60.6094 23.2887C55.5156 18.2629 49.3125 15.75 42 15.75C34.6875 15.75 28.4844 18.2629 23.3906 23.2887C18.2969 28.3146 15.75 34.435 15.75 41.65V63H14C12.075 63 10.4271 62.3146 9.05625 60.9437C7.68542 59.5729 7 57.925 7 56V49C7 47.775 7.30625 46.6229 7.91875 45.5438C8.53125 44.4646 9.39167 43.6042 10.5 42.9625L10.7625 38.325C11.2292 34.3583 12.3812 30.6833 14.2188 27.3C16.0562 23.9167 18.3604 20.9708 21.1312 18.4625C23.9021 15.9542 27.0812 14 30.6687 12.6C34.2563 11.2 38.0333 10.5 42 10.5C45.9667 10.5 49.7292 11.2 53.2875 12.6C56.8458 14 60.025 15.9396 62.825 18.4187C65.625 20.8979 67.9292 23.8292 69.7375 27.2125C71.5458 30.5958 72.7125 34.2708 73.2375 38.2375L73.5 42.7875C74.6083 43.3125 75.4688 44.1 76.0812 45.15C76.6937 46.2 77 47.3083 77 48.475V56.525C77 57.6917 76.6937 58.8 76.0812 59.85C75.4688 60.9 74.6083 61.6875 73.5 62.2125V68.25C73.5 69.6937 72.9859 70.9297 71.9578 71.9578C70.9297 72.9859 69.6937 73.5 68.25 73.5H38.5ZM31.4847 48.125C30.7366 48.125 30.1146 47.872 29.6187 47.3659C29.1229 46.8598 28.875 46.2328 28.875 45.4847C28.875 44.7366 29.128 44.1146 29.6341 43.6187C30.1402 43.1229 30.7672 42.875 31.5153 42.875C32.2634 42.875 32.8854 43.128 33.3813 43.6341C33.8771 44.1402 34.125 44.7672 34.125 45.5153C34.125 46.2634 33.872 46.8854 33.3659 47.3812C32.8598 47.8771 32.2328 48.125 31.4847 48.125ZM52.4847 48.125C51.7366 48.125 51.1146 47.872 50.6187 47.3659C50.1229 46.8598 49.875 46.2328 49.875 45.4847C49.875 44.7366 50.128 44.1146 50.6341 43.6187C51.1402 43.1229 51.7672 42.875 52.5153 42.875C53.2634 42.875 53.8854 43.128 54.3812 43.6341C54.8771 44.1402 55.125 44.7672 55.125 45.5153C55.125 46.2634 54.872 46.8854 54.3659 47.3812C53.8598 47.8771 53.2328 48.125 52.4847 48.125ZM21.0875 43.575C20.6792 37.3917 22.5458 32.0833 26.6875 27.65C30.8292 23.2167 35.9917 21 42.175 21C47.25 21 51.6542 22.6771 55.3875 26.0312C59.1208 29.3854 61.3958 33.5708 62.2125 38.5875C57.0208 38.5292 52.2812 37.0708 47.9937 34.2125C43.7062 31.3542 40.3876 27.5917 38.0379 22.925C37.121 27.5917 35.1604 31.7479 32.1562 35.3937C29.1521 39.0396 25.4625 41.7667 21.0875 43.575Z" fill="#2E318F"/>
</svg>
