<svg width="84" height="84" viewBox="0 0 84 84" fill="none" xmlns="http://www.w3.org/2000/svg">
<path d="M19.6103 69.9125C16.7451 69.9125 14.3062 68.9087 12.2937 66.901C10.2812 64.8934 9.275 62.4556 9.275 59.5875H3.5V19.25C3.5 17.85 4.025 16.625 5.075 15.575C6.125 14.525 7.35 14 8.75 14H59.4125V28.6125H68.6L80.5 44.45V59.5875H74.2875C74.2875 62.4556 73.2847 64.8934 71.2791 66.901C69.2734 68.9087 66.838 69.9125 63.9728 69.9125C61.1076 69.9125 58.6688 68.9087 56.6562 66.901C54.6437 64.8934 53.6375 62.4556 53.6375 59.5875H29.925C29.925 62.4458 28.9222 64.8813 26.9166 66.8938C24.9109 68.9063 22.4755 69.9125 19.6103 69.9125ZM19.6 64.6625C21 64.6625 22.1958 64.1667 23.1875 63.175C24.1792 62.1833 24.675 60.9875 24.675 59.5875C24.675 58.1875 24.1792 56.9917 23.1875 56C22.1958 55.0083 21 54.5125 19.6 54.5125C18.2 54.5125 17.0042 55.0083 16.0125 56C15.0208 56.9917 14.525 58.1875 14.525 59.5875C14.525 60.9875 15.0208 62.1833 16.0125 63.175C17.0042 64.1667 18.2 64.6625 19.6 64.6625ZM8.75 54.3375H10.675C11.6667 52.7625 12.922 51.5083 14.4411 50.575C15.9601 49.6417 17.6518 49.175 19.5161 49.175C21.3804 49.175 23.0854 49.6563 24.6313 50.6188C26.1771 51.5813 27.4458 52.8208 28.4375 54.3375H54.1625V19.25H8.75V54.3375ZM63.9625 64.6625C65.3625 64.6625 66.5583 64.1667 67.55 63.175C68.5417 62.1833 69.0375 60.9875 69.0375 59.5875C69.0375 58.1875 68.5417 56.9917 67.55 56C66.5583 55.0083 65.3625 54.5125 63.9625 54.5125C62.5625 54.5125 61.3667 55.0083 60.375 56C59.3833 56.9917 58.8875 58.1875 58.8875 59.5875C58.8875 60.9875 59.3833 62.1833 60.375 63.175C61.3667 64.1667 62.5625 64.6625 63.9625 64.6625ZM59.4125 46.8125H75.6875L65.975 33.8625H59.4125V46.8125Z" fill="#2E318F"/>
</svg>
