<svg width="84" height="84" viewBox="0 0 84 84" fill="none" xmlns="http://www.w3.org/2000/svg">
<g clip-path="url(#clip0_81_242)">
<path d="M42 42C53.5815 42 63 32.5815 63 21C63 9.4185 53.5815 0 42 0C30.4185 0 21 9.4185 21 21C21 32.5815 30.4185 42 42 42ZM42 7C49.721 7 56 13.279 56 21C56 28.721 49.721 35 42 35C34.279 35 28 28.721 28 21C28 13.279 34.279 7 42 7ZM77 80.5C77 82.4355 75.4355 84 73.5 84C71.5645 84 70 82.4355 70 80.5C70 70.749 64.2705 62.307 56 58.366V67.102C60.074 68.5475 63 72.436 63 77V80.5C63 82.4355 61.4355 84 59.5 84C57.5645 84 56 82.4355 56 80.5V77C56 75.068 54.432 73.5 52.5 73.5C50.568 73.5 49 75.068 49 77V80.5C49 82.4355 47.4355 84 45.5 84C43.5645 84 42 82.4355 42 80.5V77C42 72.436 44.926 68.5475 49 67.102V56.252C47.8555 56.0875 46.6865 56 45.5 56H38.5C36.0675 56 33.719 56.357 31.5 57.022V67.4415C33.593 68.6525 35 70.9135 35 73.5035C35 77.371 31.8675 80.5035 28 80.5035C24.1325 80.5035 21 77.371 21 73.5035C21 70.9135 22.407 68.6525 24.5 67.4415V60.41C18.158 64.8445 14 72.198 14 80.5035C14 82.439 12.4355 84.0035 10.5 84.0035C8.5645 84.0035 7 82.439 7 80.5035C7 63.133 21.1295 49.0035 38.5 49.0035H45.5C62.8705 49.0035 77 63.1295 77 80.5Z" fill="#2E318F"/>
</g>
<defs>
<clipPath id="clip0_81_242">
<rect width="84" height="84" fill="white"/>
</clipPath>
</defs>
</svg>
