<svg width="84" height="84" viewBox="0 0 84 84" fill="none" xmlns="http://www.w3.org/2000/svg">
<g clip-path="url(#clip0_81_238)">
<path d="M73.5 45.5H69.3315L58.9785 61.5265L46.102 41.5975C55.7235 39.683 63 31.178 63 21C63 9.4185 53.5815 0 42 0H19.25C14.427 0 10.5 3.9235 10.5 8.75V70H14V42H42.196L56.896 64.75L44.457 84H48.6255L58.9785 67.9735L69.3315 84H73.5L61.061 64.75L73.5 45.5ZM42 38.5H14V8.75C14 5.8555 16.3555 3.5 19.25 3.5H42C51.6495 3.5 59.5 11.3505 59.5 21C59.5 30.6495 51.6495 38.5 42 38.5Z" fill="#2E318F"/>
</g>
<defs>
<clipPath id="clip0_81_238">
<rect width="84" height="84" fill="white"/>
</clipPath>
</defs>
</svg>
