<svg width="84" height="84" viewBox="0 0 84 84" fill="none" xmlns="http://www.w3.org/2000/svg">
<path d="M15.75 77C14.3063 77 13.0703 76.4859 12.0422 75.4578C11.0141 74.4297 10.5 73.1937 10.5 71.75V29.4875C9.50833 29.1375 8.67708 28.5137 8.00625 27.616C7.33542 26.7184 7 25.6797 7 24.5V12.25C7 10.8062 7.51406 9.57031 8.54219 8.54219C9.57031 7.51406 10.8062 7 12.25 7H71.75C73.1937 7 74.4297 7.51406 75.4578 8.54219C76.4859 9.57031 77 10.8062 77 12.25V24.5C77 25.6797 76.6646 26.7184 75.9938 27.616C75.3229 28.5137 74.4917 29.1375 73.5 29.4875V71.75C73.5 73.1937 72.9859 74.4297 71.9578 75.4578C70.9297 76.4859 69.6937 77 68.25 77H15.75ZM15.75 29.75V71.75H68.25V29.75H15.75ZM12.25 24.5H71.75V12.25H12.25V24.5ZM31.5 47.25H52.5V42H31.5V47.25Z" fill="#2E318F"/>
</svg>
