<svg width="84" height="84" viewBox="0 0 84 84" fill="none" xmlns="http://www.w3.org/2000/svg">
<path d="M30.1875 73.5C24.7042 73.5 20.0521 71.5896 16.2312 67.7687C12.4104 63.9479 10.5 59.2958 10.5 53.8125C10.5 51.1875 10.9958 48.6792 11.9875 46.2875C12.9792 43.8958 14.4083 41.7667 16.275 39.9L39.9 16.275C41.7667 14.4083 43.8958 12.9792 46.2875 11.9875C48.6792 10.9958 51.1875 10.5 53.8125 10.5C59.2958 10.5 63.9479 12.4104 67.7687 16.2312C71.5896 20.0521 73.5 24.7042 73.5 30.1875C73.5 32.8125 73.0042 35.3208 72.0125 37.7125C71.0208 40.1042 69.5917 42.2333 67.725 44.1L44.1 67.725C42.2333 69.5917 40.1042 71.0208 37.7125 72.0125C35.3208 73.0042 32.8125 73.5 30.1875 73.5ZM54.075 50.3125L64.05 40.425C65.3917 39.0833 66.4271 37.5229 67.1562 35.7437C67.8854 33.9646 68.25 32.1125 68.25 30.1875C68.25 26.1625 66.85 22.75 64.05 19.95C61.25 17.15 57.8375 15.75 53.8125 15.75C51.8875 15.75 50.0354 16.1146 48.2562 16.8438C46.4771 17.5729 44.9167 18.6083 43.575 19.95L33.6875 29.925L54.075 50.3125ZM30.1875 68.25C32.0542 68.25 33.8917 67.8854 35.7 67.1562C37.5083 66.4271 39.0833 65.3917 40.425 64.05L50.3125 54.075L29.925 33.6875L19.95 43.575C18.6083 44.9167 17.5729 46.4771 16.8438 48.2562C16.1146 50.0354 15.75 51.8875 15.75 53.8125C15.75 57.8375 17.15 61.25 19.95 64.05C22.75 66.85 26.1625 68.25 30.1875 68.25Z" fill="#2E318F"/>
</svg>
